<svg width="20" height="20" viewBox="0 0 20 20" fill="none" xmlns="http://www.w3.org/2000/svg">
<path d="M4.32812 15.6719C5.92188 17.2344 7.8125 18.0156 10 18.0156C12.1875 18.0156 14.0625 17.2344 15.625 15.6719C17.2188 14.0781 18.0156 12.1875 18.0156 10C18.0156 7.8125 17.2188 5.9375 15.625 4.375C14.0625 2.78125 12.1875 1.98438 10 1.98438C7.8125 1.98438 5.92188 2.78125 4.32812 4.375C2.76562 5.9375 1.98438 7.8125 1.98438 10C1.98438 12.1875 2.76562 14.0781 4.32812 15.6719ZM2.92188 2.96875C4.89062 1 7.25 0.015625 10 0.015625C12.75 0.015625 15.0938 1 17.0312 2.96875C19 4.90625 19.9844 7.25 19.9844 10C19.9844 12.75 19 15.1094 17.0312 17.0781C15.0938 19.0156 12.75 19.9844 10 19.9844C7.25 19.9844 4.89062 19.0156 2.92188 17.0781C0.984375 15.1094 0.015625 12.75 0.015625 10C0.015625 7.25 0.984375 4.90625 2.92188 2.96875ZM9.85938 7.14062C8.60938 7.14062 7.98438 8.04688 7.98438 9.85938V10.1406C7.98438 11.9531 8.60938 12.8594 9.85938 12.8594C10.3281 12.8594 10.7188 12.7344 11.0312 12.4844C11.3438 12.2031 11.5 11.8594 11.5 11.4531H13.2812C13.2812 12.2344 12.9375 12.9219 12.25 13.5156C11.5938 14.0781 10.7969 14.3594 9.85938 14.3594C8.60938 14.3594 7.65625 13.9844 7 13.2344C6.34375 12.4844 6.01562 11.4531 6.01562 10.1406V9.85938C6.01562 8.57812 6.32812 7.57812 6.95312 6.85938C7.70312 6.01562 8.67188 5.59375 9.85938 5.59375C10.8906 5.59375 11.7031 5.89062 12.2969 6.48438C12.9531 7.14062 13.2812 7.90625 13.2812 8.78125H11.5C11.5 8.5625 11.4531 8.35938 11.3594 8.17188C11.2031 7.85938 11.0938 7.67188 11.0312 7.60938C10.7188 7.29688 10.3281 7.14062 9.85938 7.14062Z" fill="#55A5B6"/>
</svg>
