<svg width="48" height="48" viewBox="0 0 48 48" fill="none" xmlns="http://www.w3.org/2000/svg">
<path fill-rule="evenodd" clip-rule="evenodd" d="M24.0432 0.179688C10.8147 0.179688 0.0876465 11.0876 0.0876465 24.5442C0.0876465 35.3093 6.95165 44.4423 16.4699 47.6641C17.6672 47.8896 18.1067 47.1355 18.1067 46.492C18.1067 45.911 18.0845 43.9917 18.0742 41.9557C11.4097 43.4296 10.0034 39.081 10.0034 39.081C8.9137 36.2647 7.34358 35.5159 7.34358 35.5159C5.17009 34.0037 7.50742 34.0347 7.50742 34.0347C9.91297 34.2062 11.1796 36.5456 11.1796 36.5456C13.3162 40.2704 16.7837 39.1936 18.1507 38.571C18.3657 36.9966 18.9866 35.921 19.6716 35.3129C14.3508 34.6968 8.7574 32.6077 8.7574 23.2717C8.7574 20.6116 9.6932 18.4381 11.2256 16.7318C10.9769 16.1177 10.1569 13.64 11.4577 10.2839C11.4577 10.2839 13.4693 9.62903 18.0472 12.7814C19.9581 12.2415 22.0074 11.9708 24.0432 11.9615C26.0791 11.9708 28.13 12.2415 30.0444 12.7814C34.6167 9.62903 36.6256 10.2839 36.6256 10.2839C37.9295 13.64 37.1091 16.1177 36.8604 16.7318C38.3964 18.4381 39.3259 20.6116 39.3259 23.2717C39.3259 32.6298 33.7218 34.6904 28.3874 35.2936C29.2467 36.0497 30.0123 37.5324 30.0123 39.8056C30.0123 43.0653 29.9845 45.6891 29.9845 46.492C29.9845 47.1404 30.4157 47.9001 31.63 47.6608C41.1431 44.4355 47.9984 35.3057 47.9984 24.5442C47.9984 11.0876 37.273 0.179688 24.0432 0.179688Z" fill="#55A5B6"/>
<path fill-rule="evenodd" clip-rule="evenodd" d="M9.16084 35.162C9.10808 35.2835 8.92084 35.3194 8.75026 35.2363C8.57651 35.1568 8.47892 34.9918 8.53525 34.8703C8.58682 34.7457 8.77446 34.7114 8.94781 34.7941C9.12196 34.874 9.22113 35.0406 9.16084 35.162Z" fill="#55A5B6"/>
<path fill-rule="evenodd" clip-rule="evenodd" d="M10.1312 36.2627C10.0169 36.3704 9.79356 36.3204 9.64203 36.1502C9.48533 35.9803 9.45598 35.7531 9.57181 35.6438C9.68963 35.5361 9.90622 35.5865 10.0633 35.7564C10.22 35.9282 10.2506 36.1538 10.1312 36.2627Z" fill="#55A5B6"/>
<path fill-rule="evenodd" clip-rule="evenodd" d="M11.0757 37.666C10.9289 37.7697 10.6889 37.6725 10.5405 37.4558C10.3938 37.2391 10.3938 36.9793 10.5437 36.8752C10.6925 36.7711 10.9289 36.8647 11.0793 37.0798C11.2256 37.2996 11.2256 37.5599 11.0757 37.666Z" fill="#55A5B6"/>
<path fill-rule="evenodd" clip-rule="evenodd" d="M12.3697 39.0217C12.2384 39.1689 11.9587 39.1294 11.754 38.9285C11.5446 38.732 11.4863 38.4532 11.618 38.3059C11.7509 38.1582 12.0321 38.1998 12.2384 38.3991C12.4463 38.5952 12.5097 38.876 12.3697 39.0217Z" fill="#55A5B6"/>
<path fill-rule="evenodd" clip-rule="evenodd" d="M14.1548 39.8088C14.0969 39.9997 13.8275 40.0864 13.5562 40.0053C13.2853 39.9218 13.1079 39.6983 13.1627 39.5054C13.219 39.3134 13.4896 39.223 13.7629 39.3097C14.0334 39.3929 14.2112 39.6148 14.1548 39.8088Z" fill="#55A5B6"/>
<path fill-rule="evenodd" clip-rule="evenodd" d="M16.1153 39.9549C16.122 40.1558 15.8919 40.3225 15.6071 40.3257C15.3207 40.3326 15.089 40.17 15.0859 39.9723C15.0859 39.7693 15.3108 39.6043 15.5972 39.5994C15.882 39.5938 16.1153 39.7552 16.1153 39.9549Z" fill="#55A5B6"/>
<path fill-rule="evenodd" clip-rule="evenodd" d="M17.9397 39.639C17.9738 39.8351 17.7758 40.0364 17.493 40.0897C17.2149 40.1417 16.9575 40.0207 16.9222 39.8262C16.8876 39.6253 17.0892 39.4239 17.3669 39.3719C17.6501 39.3219 17.9036 39.4397 17.9397 39.639Z" fill="#55A5B6"/>
</svg>
