<svg width="48" height="48" viewBox="0 0 48 48" fill="none" xmlns="http://www.w3.org/2000/svg">
<path d="M24.0018 0C17.4837 0 16.6657 0.0284405 14.1056 0.144695C11.5506 0.261449 9.8066 0.665098 8.28059 1.25735C6.70207 1.86906 5.36306 2.68734 4.02904 4.01903C2.69403 5.35022 1.87402 6.68641 1.25901 8.26109C0.664007 9.78438 0.259003 11.5252 0.144002 14.0738C0.0300004 16.6285 0 17.4452 0 23.9495C0 30.4538 0.0290008 31.2676 0.145002 33.8222C0.262503 36.3718 0.667007 38.1122 1.26001 39.635C1.87352 41.2101 2.69353 42.5463 4.02804 43.8775C5.36156 45.2097 6.70057 46.03 8.27809 46.6417C9.8051 47.2339 11.5496 47.6376 14.1041 47.7543C16.6642 47.8706 17.4817 47.899 23.9993 47.899C30.5178 47.899 31.3333 47.8706 33.8934 47.7543C36.4484 47.6376 38.1944 47.2339 39.7214 46.6417C41.2994 46.03 42.6364 45.2097 43.97 43.8775C45.305 42.5463 46.125 41.2101 46.74 39.6355C47.33 38.1122 47.735 36.3713 47.855 33.8227C47.97 31.2681 48 30.4538 48 23.9495C48 17.4452 47.97 16.6289 47.855 14.0743C47.735 11.5247 47.33 9.78437 46.74 8.26158C46.125 6.6864 45.305 5.35022 43.97 4.01903C42.6349 2.68684 41.2999 1.86856 39.7199 1.25735C38.1899 0.665098 36.4449 0.261449 33.8899 0.144695C31.3298 0.0284405 30.5148 0 23.9947 0H24.0018ZM21.8487 4.3159C22.4877 4.3149 23.2007 4.3159 24.0018 4.3159C30.4098 4.3159 31.1693 4.33885 33.6999 4.45361C36.0399 4.56039 37.3099 4.95056 38.1559 5.27837C39.2759 5.71246 40.0744 6.23137 40.9139 7.0696C41.7539 7.90783 42.2739 8.70615 42.7099 9.82379C43.0385 10.667 43.43 11.9343 43.5365 14.2694C43.6515 16.7941 43.6765 17.5525 43.6765 23.944C43.6765 30.3356 43.6515 31.094 43.5365 33.6186C43.4295 35.9537 43.0385 37.221 42.7099 38.0643C42.2749 39.1819 41.7539 39.9777 40.9139 40.8155C40.0739 41.6537 39.2764 42.1726 38.1559 42.6067C37.3109 42.936 36.0399 43.3252 33.6999 43.4319C31.1698 43.5467 30.4098 43.5717 24.0018 43.5717C17.5932 43.5717 16.8337 43.5467 14.3036 43.4319C11.9636 43.3242 10.6936 42.934 9.8471 42.6062C8.72709 42.1721 7.92708 41.6532 7.08707 40.815C6.24707 39.9767 5.72706 39.1804 5.29106 38.0623C4.96255 37.219 4.57105 35.9517 4.46455 33.6166C4.34955 31.092 4.32655 30.3336 4.32655 23.938C4.32655 17.5425 4.34955 16.7881 4.46455 14.2634C4.57155 11.9284 4.96255 10.661 5.29106 9.81681C5.72606 8.69916 6.24707 7.90085 7.08707 7.06261C7.92708 6.22438 8.72709 5.70547 9.8471 5.27039C10.6931 4.94108 11.9636 4.55191 14.3036 4.44463C16.5177 4.34484 17.3757 4.3149 21.8487 4.30992V4.3159Z" fill="#55A5B6"/>
<path d="M36.7613 8.23369C36.1916 8.23369 35.6348 8.40227 35.1611 8.71811C34.6875 9.03394 34.3183 9.48285 34.1004 10.0081C33.8824 10.5333 33.8254 11.1112 33.9367 11.6687C34.0479 12.2262 34.3223 12.7383 34.7251 13.1402C35.128 13.5421 35.6413 13.8157 36.2 13.9265C36.7588 14.0373 37.3379 13.9802 37.8641 13.7625C38.3903 13.5448 38.8401 13.1763 39.1564 12.7036C39.4728 12.2308 39.6415 11.6751 39.6413 11.1066C39.6413 9.51998 38.3513 8.23369 36.7613 8.23369Z" fill="#55A5B6"/>
<path fill-rule="evenodd" clip-rule="evenodd" d="M23.9501 11.5916C17.1436 11.5916 11.625 17.0985 11.625 23.8907C11.625 30.6829 17.1436 36.1873 23.9501 36.1873C30.7567 36.1873 36.2738 30.6829 36.2738 23.8907C36.2738 17.0985 30.7567 11.5916 23.9501 11.5916ZM24 31.808C28.3493 31.808 31.875 28.2897 31.875 23.9496C31.875 19.6095 28.3493 16.0911 24 16.0911C19.6508 16.0911 16.125 19.6095 16.125 23.9496C16.125 28.2897 19.6508 31.808 24 31.808Z" fill="#55A5B6"/>
</svg>
