<svg width="241" height="210" viewBox="0 0 241 210" fill="none" xmlns="http://www.w3.org/2000/svg">
<path opacity="0.2" d="M241 194.612C212.331 166.853 197.996 138.19 197.996 108.621C197.996 101.983 199.191 96.5517 201.58 92.3276C203.372 87.5 205.761 83.5776 208.747 80.5603C211.136 76.9397 212.629 74.5259 213.227 73.319C218.005 67.888 221.887 62.7586 224.874 57.931C227.263 52.5 228.457 46.4655 228.457 39.8276C228.457 28.9655 224.575 19.6121 216.81 11.7673C208.449 3.92242 197.996 0 185.454 0C171.119 0 159.472 5.43104 150.513 16.2931C140.957 26.5517 136.178 41.9397 136.178 62.4569C136.178 89.6121 144.54 116.164 161.264 142.112C177.988 167.457 199.489 190.086 225.77 210L241 194.612ZM104.822 194.612C76.1524 166.853 61.8178 138.19 61.8178 108.621C61.8178 101.983 63.0124 96.5517 65.4015 92.3276C67.1933 87.5 69.5824 83.5776 72.5688 80.5603C74.9578 76.9397 76.451 74.5259 77.0483 73.319C81.8265 67.888 85.7088 62.7586 88.6951 57.931C91.0842 52.5 92.2788 46.4655 92.2788 39.8276C92.2788 28.9655 88.3965 19.6121 80.632 11.7673C72.2701 3.92242 61.8178 0 49.2751 0C34.9405 0 23.2937 5.43104 14.3345 16.2931C4.77817 26.5517 -1.52588e-05 41.9397 -1.52588e-05 62.4569C-1.52588e-05 89.6121 8.36182 116.164 25.0855 142.112C41.8092 167.457 63.311 190.086 89.591 210L104.822 194.612Z" fill="#55A5B6"/>
</svg>
